HIERARCHY
ROOT Hips
{
	OFFSET 0.00000 0.00000 0.00000
	CHANNELS 6 Xposition Yposition Zposition Zrotation Yrotation Xrotation 
	JOINT LHipJoint
	{
		OFFSET 0 0 0
		CHANNELS 3 Zrotation Yrotation Xrotation
		JOINT LeftHip
		{
			OFFSET 1.48831 -1.59570 0.95625
			CHANNELS 3 Zrotation Yrotation Xrotation
			JOINT LeftKnee
			{
				OFFSET 2.20856 -6.06797 0.00000
				CHANNELS 3 Zrotation Yrotation Xrotation
				JOINT LeftAnkle
				{
					OFFSET 2.62924 -7.22379 0.00000
					CHANNELS 3 Zrotation Yrotation Xrotation
					JOINT LeftToe
					{
						OFFSET 0.16802 -0.46163 2.41673
						CHANNELS 3 Zrotation Yrotation Xrotation
						End Site
						{
							OFFSET 0.00000 -0.00000 1.23760
						}
					}
				}
			}
		}
	}
	JOINT RHipJoint
	{
		OFFSET 0 0 0
		CHANNELS 3 Zrotation Yrotation Xrotation
		JOINT RightHip
		{
			OFFSET -1.56796 -1.59570 0.95625
			CHANNELS 3 Zrotation Yrotation Xrotation
			JOINT RightKnee
			{
				OFFSET -2.29239 -6.29829 0.00000
				CHANNELS 3 Zrotation Yrotation Xrotation
				JOINT RightAnkle
				{
					OFFSET -2.66963 -7.33475 0.00000
					CHANNELS 3 Zrotation Yrotation Xrotation
					JOINT RightToe
					{
						OFFSET -0.18185 -0.49964 2.34359
						CHANNELS 3 Zrotation Yrotation Xrotation
						End Site
						{
							OFFSET -0.00000 -0.00000 1.20477
						}
					}
				}
			}
		}
	}
	JOINT lowerback
	{
		OFFSET 0 0 0
		CHANNELS 3 Zrotation Yrotation Xrotation
		JOINT Chest
		{
			OFFSET 0.03505 2.15832 -0.34324
			CHANNELS 3 Zrotation Yrotation Xrotation
			JOINT Chest2
			{
				OFFSET -0.01089 2.17963 0.04689
				CHANNELS 3 Zrotation Yrotation Xrotation
				JOINT lowerneck
				{
					OFFSET 0 0 0
					CHANNELS 3 Zrotation Yrotation Xrotation
					JOINT Neck
					{
						OFFSET 0.04686 1.69404 0.22159
						CHANNELS 3 Zrotation Yrotation Xrotation
						JOINT Head
						{
							OFFSET 0.00265 1.69305 -0.01513
							CHANNELS 3 Zrotation Yrotation Xrotation
							End Site
							{
								OFFSET -0.00415 1.80215 -0.03034
							}
						}
					}
				}
				JOINT LeftCollar
				{
					OFFSET 0 0 0
					CHANNELS 3 Zrotation Yrotation Xrotation
					JOINT LeftShoulder
					{
						OFFSET 3.67184 1.11724 -0.19002
CHANNELS 3 Zrotation Xrotation Yrotation
						JOINT LeftElbow
						{
OFFSET 0 -5.177140 -0.000000
CHANNELS 3 Zrotation Xrotation Yrotation
							JOINT LeftWrist
							{
OFFSET 0 -3.436790 -0.000000
CHANNELS 3 Zrotation Xrotation Yrotation
								JOINT lhand
								{
									OFFSET 0 0 0
CHANNELS 3 Zrotation Xrotation Yrotation
									JOINT LFingers
									{
OFFSET 0 -0.573120 -0.000000
CHANNELS 3 Zrotation Xrotation Yrotation
										End Site
										{
OFFSET 0 -0.462060 -0.000000
										}
									}
								}
								JOINT LThumb
								{
OFFSET 0 0.000000 0.000000
CHANNELS 3 Zrotation Xrotation Yrotation
									End Site
									{
OFFSET 0 -0.469120 0.469120
									}
								}
							}
						}
					}
				}
				JOINT RightCollar
				{
					OFFSET 0 0 0
					CHANNELS 3 Zrotation Yrotation Xrotation
					JOINT RightShoulder
					{
						OFFSET -3.59596 0.95831 -0.26050
CHANNELS 3 Zrotation Xrotation Yrotation
						JOINT RightElbow
						{
OFFSET 0 -5.239080 -0.000000
CHANNELS 3 Zrotation Xrotation Yrotation
							JOINT RightWrist
							{
OFFSET 0 -3.464850 -0.000000
CHANNELS 3 Zrotation Xrotation Yrotation
								JOINT rhand
								{
									OFFSET 0 0 0
CHANNELS 3 Zrotation Xrotation Yrotation
									JOINT RFingers
									{
OFFSET 0 -0.608750 -0.000000
CHANNELS 3 Zrotation Xrotation Yrotation
										End Site
										{
OFFSET 0 -0.490790 -0.000000
										}
									}
								}
								JOINT RThumb
								{
OFFSET 0 0.000000 0.000000
CHANNELS 3 Zrotation Xrotation Yrotation
									End Site
									{
OFFSET 0 -0.498290 0.498290
									}
								}
							}
						}
					}
				}
			}
		}
	}
}
MOTION
Frames: 9
Frame Time: 0.008333333333333333
-5.481367 16.832283 -0.717333 -21.791222 -79.851364 34.863685 0.000000 0.000000 0.000000 -13.856124 5.345833 -22.415438 1.023237 6.434895 18.051518 0.175607 -7.317469 -8.446435 0.000917 -0.198060 -0.544249 0.000000 0.000000 0.000000 17.221300 10.150520 -12.297741 -1.440914 -7.588893 21.472280 -1.968231 -10.240860 -31.829534 -0.313436 -3.599046 9.951318 -0.828702 -1.934187 11.145354 -0.460534 -2.757236 -2.918278 0.499724 -1.299852 -9.374654 -2.932798 -7.520455 9.951407 -2.753150 -10.778255 -6.837140 0.299100 -5.127069 -4.011781 0.000000 0.000000 0.000000 16.782065 16.158975 -36.954285 26.277776 -37.481693 9.056206 -9.525598 -17.539751 -5.852070 0.000000 0.000000 0.000000 -7.125000 0.000000 0.000000 -29.153042 34.427180 -8.524204 0.000000 0.000000 0.000000 -15.028792 15.858017 39.123096 -22.406234 -33.433134 -6.808267 -12.185599 3.108529 2.120821 0.000000 0.000000 0.000000 7.125000 0.000000 0.000000 11.544268 32.007021 3.736983
-5.477995 16.832251 -0.716551 -22.038697 -79.808707 35.183132 0.000000 0.000000 0.000000 -13.674624 4.679365 -22.284600 1.031443 6.459929 18.124938 0.209012 -6.728435 -8.777689 0.000700 -0.168263 -0.462337 0.000000 0.000000 0.000000 17.265028 10.147027 -12.374657 -1.434905 -7.573713 21.426588 -1.950590 -10.290090 -31.756651 -0.308491 -3.570799 9.872156 -0.836564 -1.953697 11.162426 -0.453114 -2.783615 -2.899356 0.517304 -1.311950 -9.362896 -2.954490 -7.521647 9.999972 -2.737272 -10.782949 -6.834779 0.310396 -5.128900 -4.018168 0.000000 0.000000 0.000000 16.626881 16.204816 -36.969538 26.384005 -37.585353 9.120833 -9.649464 -17.499017 -5.917412 0.000000 0.000000 0.000000 -7.125000 0.000000 0.000000 -29.265220 34.475741 -8.525870 0.000000 0.000000 0.000000 -14.999841 15.821587 39.055839 -22.394407 -33.419908 -6.801804 -12.213360 3.111484 2.142762 0.000000 0.000000 0.000000 7.125000 0.000000 0.000000 11.525294 32.029812 3.724145
-5.468244 16.834235 -0.718983 -22.163011 -79.873695 35.394294 0.000000 0.000000 0.000000 -13.576491 4.095154 -22.155323 1.029108 6.452925 18.104358 0.237177 -6.087260 -9.045791 0.001217 -0.221761 -0.609228 0.000000 0.000000 0.000000 17.239836 10.484792 -12.422270 -1.439313 -7.584874 21.460040 -1.972923 -10.374843 -31.949747 -0.319840 -3.635359 10.052989 -0.928585 -1.953622 11.275463 -0.453501 -2.798661 -2.902465 0.575948 -1.312983 -9.427877 -3.034792 -7.481815 9.982401 -2.774651 -10.740972 -6.771455 0.306083 -5.106736 -3.989719 0.000000 0.000000 0.000000 16.516047 16.250334 -37.155344 26.372819 -37.574537 9.114071 -9.508647 -17.581923 -5.920204 0.000000 0.000000 0.000000 -7.125000 0.000000 0.000000 -29.162777 34.488898 -8.477271 0.000000 0.000000 0.000000 -14.904569 15.733446 39.051970 -22.369164 -33.391751 -6.787917 -12.292579 3.125568 2.119013 0.000000 0.000000 0.000000 7.125000 0.000000 0.000000 11.459290 32.008348 3.708075
-5.455904 16.835869 -0.719400 -22.983494 -79.865163 36.305043 0.000000 0.000000 0.000000 -13.321421 3.489297 -22.147101 1.045159 6.501292 18.246107 0.267945 -5.483795 -9.403464 0.001784 -0.271666 -0.746341 0.000000 0.000000 0.000000 17.360365 10.564704 -12.521880 -1.425863 -7.550788 21.357834 -1.940553 -10.490833 -31.835029 -0.314974 -3.607678 9.975476 -0.860804 -1.992337 11.395761 -0.356979 -2.833313 -2.939286 0.653172 -1.328674 -9.536229 -3.258044 -7.353345 10.054377 -2.923004 -10.613935 -6.663323 0.287238 -5.034266 -3.962108 0.000000 0.000000 0.000000 16.408528 16.369172 -37.217183 26.343536 -37.545905 9.096214 -9.081428 -17.508698 -5.809558 0.000000 0.000000 0.000000 -7.125000 0.000000 0.000000 -28.812716 34.422459 -8.402719 0.000000 0.000000 0.000000 -14.927293 15.683376 39.102852 -22.500414 -33.537969 -6.860242 -12.174768 3.096035 2.117475 0.000000 0.000000 0.000000 7.125000 0.000000 0.000000 11.552399 32.003385 3.740678
-5.450539 16.836049 -0.717295 -22.428914 -79.846212 35.739610 0.000000 0.000000 0.000000 -13.299612 2.786411 -21.850141 1.042403 6.493159 18.222174 0.290733 -4.860436 -9.667508 0.001449 -0.247560 -0.680166 0.000000 0.000000 0.000000 17.256300 10.528332 -12.579614 -1.440669 -7.588299 21.470496 -1.951229 -10.436982 -31.862138 -0.317846 -3.623929 10.020994 -0.899395 -2.118477 11.520014 -0.319582 -3.005993 -2.943846 0.753539 -1.407135 -9.607680 -3.473474 -7.119006 10.122317 -3.253507 -10.352628 -6.372382 0.194826 -4.893382 -3.881200 0.000000 0.000000 0.000000 16.430577 16.437217 -37.370036 26.255174 -37.459623 9.042415 -9.163775 -17.340259 -5.905779 0.000000 0.000000 0.000000 -7.125000 0.000000 0.000000 -28.904457 34.501789 -8.372235 0.000000 0.000000 0.000000 -14.915553 15.475846 38.424507 -22.823704 -33.895364 -7.039687 -12.171240 2.946416 2.123415 0.000000 0.000000 0.000000 7.125000 0.000000 0.000000 11.555978 32.009179 3.740288
-5.443109 16.835100 -0.717491 -22.498865 -79.894758 35.689091 0.000000 0.000000 0.000000 -13.213754 2.234556 -21.472439 1.038645 6.481836 18.188980 0.314455 -4.222379 -9.983506 0.002118 -0.295002 -0.810450 0.000000 0.000000 0.000000 17.231690 10.355663 -12.614191 -1.454364 -7.622610 21.573448 -1.946263 -10.261444 -31.710433 -0.319727 -3.634508 10.050551 -0.998113 -2.225419 11.660890 -0.267609 -3.161011 -2.943090 0.901020 -1.472819 -9.678598 -3.524480 -6.964771 10.386031 -3.366522 -10.163953 -6.153297 0.161317 -4.796354 -3.859691 0.000000 0.000000 0.000000 16.505394 16.547743 -37.538048 26.289608 -37.493244 9.063354 -9.146351 -17.306526 -5.657005 0.000000 0.000000 0.000000 -7.125000 0.000000 0.000000 -28.811378 34.282096 -8.515220 0.000000 0.000000 0.000000 -15.061939 15.337506 38.028672 -23.177832 -34.282686 -7.238193 -12.302135 2.748418 2.142354 0.000000 0.000000 0.000000 7.125000 0.000000 0.000000 11.454783 32.031899 3.699955
-5.440270 16.834030 -0.723241 -23.120387 -80.125435 36.215544 0.000000 0.000000 0.000000 -13.123385 1.900067 -21.162160 1.036370 6.474841 18.168507 0.335143 -3.620813 -10.291728 0.002385 -0.316578 -0.869789 0.000000 0.000000 0.000000 17.246270 10.435951 -12.598590 -1.465551 -7.650729 21.658171 -1.908658 -10.316537 -31.519902 -0.300212 -3.523053 9.738588 -1.093753 -2.224243 11.543666 -0.276707 -3.173721 -2.951615 0.942268 -1.474886 -9.614449 -3.503111 -6.805630 10.577727 -3.591872 -9.967024 -5.930136 0.075389 -4.693379 -3.833586 0.000000 0.000000 0.000000 16.737649 16.345080 -37.517977 26.206554 -37.411939 9.012801 -9.166586 -17.290433 -5.695854 0.000000 0.000000 0.000000 -7.125000 0.000000 0.000000 -28.838734 34.315188 -8.498781 0.000000 0.000000 0.000000 -15.072262 15.194702 37.802528 -23.277625 -34.390995 -7.294533 -12.336256 2.776394 2.156641 0.000000 0.000000 0.000000 7.125000 0.000000 0.000000 11.429723 32.047237 3.687208
-5.440060 16.832440 -0.728613 -24.234061 -80.447339 37.163712 0.000000 0.000000 0.000000 -13.021479 1.696289 -20.832196 1.042148 6.492296 18.219683 0.357358 -3.022731 -10.656550 0.003152 -0.360417 -0.990321 0.000000 0.000000 0.000000 17.284494 10.569423 -12.465026 -1.469985 -7.661688 21.691015 -1.887173 -10.258350 -31.347620 -0.297098 -3.504787 9.687428 -1.048489 -2.173083 11.434060 -0.350313 -3.105402 -3.010875 0.821595 -1.447494 -9.623423 -3.496736 -6.561486 10.649002 -3.718790 -9.650965 -5.848661 0.014142 -4.532980 -3.827177 0.000000 0.000000 0.000000 17.137127 16.113109 -37.715476 26.189343 -37.395100 9.002375 -9.083477 -17.252888 -5.608269 0.000000 0.000000 0.000000 -7.125000 0.000000 0.000000 -28.749475 34.243398 -8.523306 0.000000 0.000000 0.000000 -14.905137 15.157781 37.722975 -23.276184 -34.389448 -7.293704 -12.248920 2.848648 2.162927 0.000000 0.000000 0.000000 7.125000 0.000000 0.000000 11.499792 32.051066 3.709529
-5.449262 16.827329 -0.733714 -25.440239 -80.895533 38.052814 0.000000 0.000000 0.000000 -13.014119 1.662064 -20.256046 1.036338 6.474895 18.168666 0.380533 -2.386720 -11.072682 0.005519 -0.478847 -1.315670 0.000000 0.000000 0.000000 17.274295 10.749796 -12.180460 -1.488481 -7.707633 21.829598 -1.886947 -10.107557 -31.241945 -0.291900 -3.474281 9.602124 -1.046410 -2.148648 11.203392 -0.440884 -3.079267 -3.059642 0.709945 -1.439976 -9.547822 -3.531952 -6.209923 10.644349 -3.784359 -9.198697 -5.949969 -0.028265 -4.302625 -3.864861 0.000000 0.000000 0.000000 17.498418 15.822028 -37.963371 26.137962 -37.344662 8.971181 -9.073915 -17.271470 -5.698040 0.000000 0.000000 0.000000 -7.125000 0.000000 0.000000 -28.771239 34.323883 -8.466728 0.000000 0.000000 0.000000 -14.759226 15.108365 37.818606 -23.526265 -34.659274 -7.435444 -12.246646 2.792312 2.150187 0.000000 0.000000 0.000000 7.125000 0.000000 0.000000 11.499922 32.038173 3.713213
